<svg width="64" height="64" xmlns="http://www.w3.org/2000/svg">

 <g>
  <title>background</title>
  <rect fill="none" id="canvas_background" height="402" width="582" y="-1" x="-1"/>
 </g>
 <g>
  <title>Layer 1</title>
  <circle fill-opacity="0.2" id="svg_2" r="32" fill="#FFF" cy="32" cx="32"/>
  <polygon opacity="0.2" id="svg_5" points="48,26 48,18 16,18 16,26 16,50 48,50    " fill="#231F20"/>
  <path opacity="0.2" id="svg_7" fill="#231F20" d="m48,14l-32,0c-2.209,0 -4,1.791 -4,4l0,8l0,24c0,2.209 1.791,4 4,4l32,0c2.209,0 4,-1.791 4,-4l0,-24l0,-8c0,-2.209 -1.791,-4 -4,-4z"/>
  <path id="svg_10" fill="#77B3D4" d="m16,50c-1.103,0 -2,-0.897 -2,-2l0,-32c0,-1.103 0.897,-2 2,-2l32,0c1.103,0 2,0.897 2,2l0,32c0,1.103 -0.897,2 -2,2l-32,0z"/>
  <path id="svg_12" fill="#FFFFFF" d="m48,16l0,8l0,24l-32,0l0,-24l0,-8l32,0m0,-4l-32,0c-2.209,0 -4,1.791 -4,4l0,8l0,24c0,2.209 1.791,4 4,4l32,0c2.209,0 4,-1.791 4,-4l0,-24l0,-8c0,-2.209 -1.791,-4 -4,-4l0,0z"/>
  <rect id="svg_14" y="44" x="16" width="32" height="4" fill="#FFFFFF"/>
  <path id="svg_17" fill="#4F5D73" d="m13.99,44l34.896,0l0,-2.921c0,0 -1.706,-2.977 -3.286,-4.843c-1.176,-1.388 -2.932,-1.78 -4.464,-0.076l-2.752,2.643l-5.999,-7.629c-2.234,-2.841 -5.89,-2.841 -8.124,0l-10.271,12.826z"/>
  <circle id="svg_19" r="3" fill="#F5CF87" cy="24" cx="40"/>
  <path id="svg_21" fill="#FFFFFF" d="m48,16l0,8l0,24l-32,0l0,-24l0,-8l32,0m0,-4l-32,0c-2.209,0 -4,1.791 -4,4l0,8l0,24c0,2.209 1.791,4 4,4l32,0c2.209,0 4,-1.791 4,-4l0,-24l0,-8c0,-2.209 -1.791,-4 -4,-4l0,0z"/>
 </g>
</svg>